{"title":"Troy-2004-Extended Cut BRRip 720p 5.1Ch Hindi Audio-[RedHeart]-T","uid":6532729,"size":1629578661,"categoryP":"video","categoryS":"hd___movies","magnet":"?xt=urn:btih:921e971cacef1d4f5505fa77888da806a6268937&amp;dn=Troy-2004-Extended+Cut+BRRip+720p+5.1Ch+Hindi+Audio-%5BRedHeart%5D-T&amp;tr=udp%3A%2F%2Ftracker.openbittorrent.com%3A80&amp;tr=udp%3A%2F%2Fopen.demonii.com%3A1337&amp;tr=udp%3A%2F%2Ftracker.coppersurfer.tk%3A6969&amp;tr=udp%3A%2F%2Fexodus.desync.com%3A6969","seeders":0,"leechers":1,"uploader":"MWantedP","files":1,"time":1310406198,"description":"Complete name : TROY 2004 Extended Cut BRRip 720p 5.1Ch Hindi Audio-[RedHeart].mkv\nFormat : Matroska\nFile size : 1.52 GiB\nDuration : 2h 57mn\nOverall bit rate : 1 224 Kbps\nMovie name : The Dream Team[RedHeart]\nEncoded date : UTC 2011-07-09 06:10:32\nWriting application : mkvmerge v4.4.0 ('Die Wiederkehr') built on Oct 31 2010 21:52:48\nWriting library : libebml v1.0.0 + libmatroska v1.0.0\n\nVideo\nID : 1\nFormat : AVC\nFormat/Info : Advanced Video Codec\nFormat profile : &lt;a class=&quot;__cf_email__&quot; href=&quot;/cdn-cgi/l/email-protection&quot; data-cfemail=&quot;246c4d434c6468170a15&quot;&gt;[email&amp;#160;protected]&lt;/a&gt;&lt;script cf-hash='f9e31' type=&quot;text/javascript&quot;&gt;\n/* &lt;![CDATA[ */!function(){try{var t=&quot;currentScript&quot;in document?document.currentScript:function(){for(var t=document.getElementsByTagName(&quot;script&quot;),e=t.length;e--;)if(t[e].getAttribute(&quot;cf-hash&quot;))return t[e]}();if(t&amp;&amp;t.previousSibling){var e,r,n,i,c=t.previousSibling,a=c.getAttribute(&quot;data-cfemail&quot;);if(a){for(e=&quot;&quot;,r=parseInt(a.substr(0,2),16),n=2;a.length-n;n+=2)i=parseInt(a.substr(n,2),16)^r,e+=String.fromCharCode(i);e=document.createTextNode(e),c.parentNode.replaceChild(e,c)}}}catch(u){}}();/* ]]&gt; */&lt;/script&gt;\nFormat settings, CABAC : Yes\nFormat settings, ReFrames : 4 frames\nMuxing mode : Header stripping\nCodec ID : V_MPEG4/ISO/AVC\nDuration : 2h 57mn\nBit rate : 1 042 Kbps\nWidth : 1 280 pixels\nHeight : 528 pixels\nDisplay aspect ratio : 2.40:1\nFrame rate : 23.976 fps\nColor space : YUV\nChroma subsampling : 4:2:0\nBit depth : 8 bits\nScan type : Progressive\nBits/(Pixel*Frame) : 0.064\nStream size : 1.25 GiB (82%)\nTitle : RedHeart\nWriting library : x264 core 112\n\n\nAudio\nID : 2\nFormat : AC-3\nFormat/Info : Audio Coding 3\nMode extension : CM (complete main)\nMuxing mode : Header stripping\nCodec ID : A_AC3\nDuration : 2h 57mn\nBit rate mode : Constant\nBit rate : 192 Kbps\nChannel(s) : 6 channels\nChannel positions : Front: L C R, Side: L R, LFE\nSampling rate : 48.0 KHz\nBit depth : 16 bits\nCompression mode : Lossy\nStream size : 244 MiB (16%)\nTitle : RedHeart\nLanguage : Hindi\n\n\n &lt;a href=&quot;\nhttp://img641.imageshack.us/img641/5312/vlcsnap2011071100h34m58.png&quot; rel=&quot;nofollow&quot; target=&quot;_NEW&quot;&gt;\nhttp://img641.imageshack.us/img641/5312/vlcsnap2011071100h34m58.png&lt;/a&gt; &lt;a href=&quot;\nhttp://img813.imageshack.us/img813/8761/vlcsnap2011071100h25m57.png&quot; rel=&quot;nofollow&quot; target=&quot;_NEW&quot;&gt;\nhttp://img813.imageshack.us/img813/8761/vlcsnap2011071100h25m57.png&lt;/a&gt; &lt;a href=&quot;\nhttp://img834.imageshack.us/img834/6945/vlcsnap2011071100h25m13.png&quot; rel=&quot;nofollow&quot; target=&quot;_NEW&quot;&gt;\nhttp://img834.imageshack.us/img834/6945/vlcsnap2011071100h25m13.png&lt;/a&gt; &lt;a href=&quot;\nhttp://img171.imageshack.us/img171/7002/vlcsnap2011071100h22m53.png&quot; rel=&quot;nofollow&quot; target=&quot;_NEW&quot;&gt;\nhttp://img171.imageshack.us/img171/7002/vlcsnap2011071100h22m53.png&lt;/a&gt; &lt;a href=&quot;\nhttp://img849.imageshack.us/img849/5505/vlcsnap2011071100h20m11.png&quot; rel=&quot;nofollow&quot; target=&quot;_NEW&quot;&gt;\nhttp://img849.imageshack.us/img849/5505/vlcsnap2011071100h20m11.png&lt;/a&gt; &lt;a href=&quot;\nhttp://img228.imageshack.us/img228/4081/vlcsnap2011071100h15m33.png&quot; rel=&quot;nofollow&quot; target=&quot;_NEW&quot;&gt;\nhttp://img228.imageshack.us/img228/4081/vlcsnap2011071100h15m33.png&lt;/a&gt; &lt;a href=&quot;\nhttp://img585.imageshack.us/img585/2193/vlcsnap2011071100h15m26.png&quot; rel=&quot;nofollow&quot; target=&quot;_NEW&quot;&gt;\nhttp://img585.imageshack.us/img585/2193/vlcsnap2011071100h15m26.png&lt;/a&gt; &lt;a href=&quot;\nhttp://img843.imageshack.us/img843/4369/vlcsnap2011071100h14m17.png&quot; rel=&quot;nofollow&quot; target=&quot;_NEW&quot;&gt;\nhttp://img843.imageshack.us/img843/4369/vlcsnap2011071100h14m17.png&lt;/a&gt; &lt;a href=&quot;\nhttp://img809.imageshack.us/img809/3772/vlcsnap2011071100h13m36.png&quot; rel=&quot;nofollow&quot; target=&quot;_NEW&quot;&gt;\nhttp://img809.imageshack.us/img809/3772/vlcsnap2011071100h13m36.png&lt;/a&gt; &lt;a href=&quot;\nhttp://img143.imageshack.us/img143/6193/vlcsnap2011071100h08m48.png&quot; rel=&quot;nofollow&quot; target=&quot;_NEW&quot;&gt;\nhttp://img143.imageshack.us/img143/6193/vlcsnap2011071100h08m48.png&lt;/a&gt; &lt;a href=&quot;\nhttp://img84.imageshack.us/img84/4331/vlcsnap2011071100h05m19.png&quot; rel=&quot;nofollow&quot; target=&quot;_NEW&quot;&gt;\nhttp://img84.imageshack.us/img84/4331/vlcsnap2011071100h05m19.png&lt;/a&gt; &lt;a href=&quot;\nhttp://img197.imageshack.us/img197/2927/vlcsnap2011071100h05m13.png&quot; rel=&quot;nofollow&quot; target=&quot;_NEW&quot;&gt;\nhttp://img197.imageshack.us/img197/2927/vlcsnap2011071100h05m13.png&lt;/a&gt; &lt;a href=&quot;\nhttp://img233.imageshack.us/img233/3742/vlcsnap2011071100h04m32.png&quot; rel=&quot;nofollow&quot; target=&quot;_NEW&quot;&gt;\nhttp://img233.imageshack.us/img233/3742/vlcsnap2011071100h04m32.png&lt;/a&gt; &lt;a href=&quot;\nhttp://img585.imageshack.us/img585/4346/vlcsnap2011071023h58m57.png&quot; rel=&quot;nofollow&quot; target=&quot;_NEW&quot;&gt;\nhttp://img585.imageshack.us/img585/4346/vlcsnap2011071023h58m57.png&lt;/a&gt; &lt;a href=&quot;\nhttp://img824.imageshack.us/img824/4187/vlcsnap2011071023h56m54.png&quot; rel=&quot;nofollow&quot; target=&quot;_NEW&quot;&gt;\nhttp://img824.imageshack.us/img824/4187/vlcsnap2011071023h56m54.png&lt;/a&gt; &lt;a href=&quot;\nhttp://img21.imageshack.us/img21/1867/vlcsnap2011070912h22m37.png&quot; rel=&quot;nofollow&quot; target=&quot;_NEW&quot;&gt;\nhttp://img21.imageshack.us/img21/1867/vlcsnap2011070912h22m37.png&lt;/a&gt;\n","torrent":{"xt":"urn:btih:921e971cacef1d4f5505fa77888da806a6268937","amp;dn":"Troy-2004-Extended+Cut+BRRip+720p+5.1Ch+Hindi+Audio-%5BRedHeart%5D-T","amp;tr":["udp%3A%2F%2Ftracker.openbittorrent.com%3A80","udp%3A%2F%2Fopen.demonii.com%3A1337","udp%3A%2F%2Ftracker.coppersurfer.tk%3A6969","udp%3A%2F%2Fexodus.desync.com%3A6969"],"infoHash":"921e971cacef1d4f5505fa77888da806a6268937","infoHashBuffer":{"type":"Buffer","data":[146,30,151,28,172,239,29,79,85,5,250,119,136,141,168,6,166,38,137,55]},"announce":[],"urlList":[]}}